<?xml version="1.0" standalone="no"?><!DOCTYPE svg PUBLIC "-//W3C//DTD SVG 1.1//EN" "http://www.w3.org/Graphics/SVG/1.1/DTD/svg11.dtd"><svg t="1641040073269" class="icon" viewBox="0 0 1024 1024" version="1.1" xmlns="http://www.w3.org/2000/svg" p-id="3421" xmlns:xlink="http://www.w3.org/1999/xlink" width="128" height="128"><defs><style type="text/css"></style></defs><path d="M511 64C263.5 64 63 264.5 63 512c0 247.4 200.6 448 448 448s448-200.6 448-448c0-247.5-200.6-448-448-448z m-66.8 448c0 10.2-2.1 20-5.8 28.9L561.6 623c12-8.5 26.7-13.5 42.5-13.5 40.9 0 74.1 33.2 74.1 74.1 0 40.9-33.2 74.1-74.1 74.1-40.9 0-74.1-33.2-74.1-74.1 0-5.7 0.7-11.2 1.9-16.6l-131.4-87.6c-9.3 4.2-19.6 6.6-30.5 6.6-40.9 0-74.1-33.2-74.1-74.1 0-40.9 33.2-74.1 74.1-74.1 10.9 0 21.2 2.4 30.5 6.6l131.4-87.6c-1.2-5.3-1.9-10.9-1.9-16.6 0-40.9 33.2-74.1 74.1-74.1 40.9 0 74.1 33.2 74.1 74.1s-33.2 74.1-74.1 74.1c-15.8 0-30.5-5-42.5-13.5l-123.2 82.1c3.7 9.1 5.8 18.8 5.8 29.1z" p-id="3422"></path></svg>